<mxfile host="65bd71144e">
    <diagram id="PJhBvZbjIUu8iOUgB9s-" name="ページ1">
        <mxGraphModel dx="1440" dy="1028" grid="1" gridSize="10" guides="1" tooltips="1" connect="1" arrows="1" fold="1" page="1" pageScale="1" pageWidth="827" pageHeight="1169" math="0" shadow="0">
            <root>
                <mxCell id="0"/>
                <mxCell id="1" parent="0"/>
                <mxCell id="42" value="#007 AIに質問を投げかける" style="swimlane;whiteSpace=wrap;html=1;swimlaneLine=1;startSize=20;rounded=0;" parent="1" vertex="1">
                    <mxGeometry x="40" y="40" width="760" height="570" as="geometry"/>
                </mxCell>
                <mxCell id="47" value="ユーザー" style="swimlane;whiteSpace=wrap;html=1;" parent="42" vertex="1">
                    <mxGeometry y="20" width="270" height="550" as="geometry">
                        <mxRectangle y="20" width="90" height="30" as="alternateBounds"/>
                    </mxGeometry>
                </mxCell>
                <mxCell id="60" style="edgeStyle=none;html=1;exitX=0.5;exitY=1;exitDx=0;exitDy=0;entryX=0.5;entryY=0;entryDx=0;entryDy=0;rounded=0;" parent="47" source="49" target="50" edge="1">
                    <mxGeometry relative="1" as="geometry"/>
                </mxCell>
                <mxCell id="49" value="" style="ellipse;whiteSpace=wrap;html=1;aspect=fixed;fillColor=#000000;" parent="47" vertex="1">
                    <mxGeometry x="105" y="60" width="40" height="40" as="geometry"/>
                </mxCell>
                <mxCell id="50" value="質問を入力し，「送信」を選択する" style="rounded=1;whiteSpace=wrap;html=1;fillColor=none;" parent="47" vertex="1">
                    <mxGeometry x="10" y="140" width="230" height="40" as="geometry"/>
                </mxCell>
                <mxCell id="48" value="システム" style="swimlane;whiteSpace=wrap;html=1;" parent="42" vertex="1">
                    <mxGeometry x="270" y="20" width="260" height="550" as="geometry">
                        <mxRectangle x="320" y="20" width="90" height="30" as="alternateBounds"/>
                    </mxGeometry>
                </mxCell>
                <mxCell id="51" value="質問の内容を取得し，&lt;br&gt;感情分析AIに送信する" style="rounded=1;whiteSpace=wrap;html=1;fillColor=none;" parent="48" vertex="1">
                    <mxGeometry x="30" y="140" width="200" height="40" as="geometry"/>
                </mxCell>
                <mxCell id="76" style="edgeStyle=orthogonalEdgeStyle;html=1;exitX=1;exitY=0.5;exitDx=0;exitDy=0;fontColor=#000000;rounded=0;" parent="48" edge="1">
                    <mxGeometry relative="1" as="geometry">
                        <mxPoint x="305" y="325" as="sourcePoint"/>
                    </mxGeometry>
                </mxCell>
                <mxCell id="69" value="" style="group" parent="48" vertex="1" connectable="0">
                    <mxGeometry x="110" y="410" width="140" height="40" as="geometry"/>
                </mxCell>
                <mxCell id="64" value="" style="ellipse;shape=doubleEllipse;whiteSpace=wrap;html=1;aspect=fixed;rounded=0;fillColor=none;" parent="69" vertex="1">
                    <mxGeometry width="40" height="40" as="geometry"/>
                </mxCell>
                <mxCell id="68" value="" style="ellipse;whiteSpace=wrap;html=1;aspect=fixed;fillColor=#000000;" parent="69" vertex="1">
                    <mxGeometry x="5.003636363636363" y="5" width="30" height="30" as="geometry"/>
                </mxCell>
                <mxCell id="62" style="edgeStyle=orthogonalEdgeStyle;html=1;exitX=1;exitY=0.5;exitDx=0;exitDy=0;entryX=0;entryY=0.5;entryDx=0;entryDy=0;rounded=0;" parent="42" source="50" target="51" edge="1">
                    <mxGeometry relative="1" as="geometry">
                        <mxPoint x="440" y="180.0000000000001" as="targetPoint"/>
                    </mxGeometry>
                </mxCell>
                <mxCell id="98" value="感情分析AI" style="swimlane;whiteSpace=wrap;html=1;" vertex="1" parent="42">
                    <mxGeometry x="530" y="20" width="230" height="550" as="geometry">
                        <mxRectangle x="320" y="20" width="90" height="30" as="alternateBounds"/>
                    </mxGeometry>
                </mxCell>
                <mxCell id="100" value="質問内容をもとに，生成された内容を，システムに送信する．" style="rounded=1;whiteSpace=wrap;html=1;fillColor=none;" vertex="1" parent="98">
                    <mxGeometry x="15" y="140" width="200" height="40" as="geometry"/>
                </mxCell>
                <mxCell id="101" style="edgeStyle=orthogonalEdgeStyle;html=1;exitX=1;exitY=0.5;exitDx=0;exitDy=0;fontColor=#000000;rounded=0;" edge="1" parent="98">
                    <mxGeometry relative="1" as="geometry">
                        <mxPoint x="305" y="325" as="sourcePoint"/>
                    </mxGeometry>
                </mxCell>
                <mxCell id="105" style="edgeStyle=none;html=1;exitX=1;exitY=0.5;exitDx=0;exitDy=0;entryX=0;entryY=0.5;entryDx=0;entryDy=0;" edge="1" parent="42" source="51" target="100">
                    <mxGeometry relative="1" as="geometry"/>
                </mxCell>
            </root>
        </mxGraphModel>
    </diagram>
</mxfile>